<?xml version="1.0" encoding="utf-8"?>
<!-- Generator: Adobe Illustrator 25.0.0, SVG Export Plug-In . SVG Version: 6.00 Build 0)  -->
<svg version="1.1" id="Layer_1" xmlns="http://www.w3.org/2000/svg" xmlns:xlink="http://www.w3.org/1999/xlink" x="0px" y="0px"
	 viewBox="0 0 500 500" style="enable-background:new 0 0 500 500;" xml:space="preserve">
<style type="text/css">
	.st0{fill:url(#SVGID_1_);}
	.st1{fill:url(#SVGID_2_);}
</style>
<g>
	<linearGradient id="SVGID_1_" gradientUnits="userSpaceOnUse" x1="201.2309" y1="330.1201" x2="351.7789" y2="7.2688">
		<stop  offset="0" style="stop-color:#1670B9"/>
		<stop  offset="0.3271" style="stop-color:#3D8DCB"/>
		<stop  offset="1" style="stop-color:#62CBE6"/>
	</linearGradient>
	<path class="st0" d="M103.07,218.43c14.51,73.65,113.53,154.55,207.53,108.56c-11.79,4.77-24.9,7.05-38.66,6.16
		c-42.35-2.77-76.66-36.25-79.44-77.51c-3.28-48.57,36.19-88.96,85.34-88.96c21.59,0,41.3,7.8,56.35,20.66
		c22.93,19.6,54.39,26.71,83.33,17.31l3.32-1.08c60.93-19.79,77.36-96.07,29.92-138.26C407.74,27.05,351.31,2.88,289.14,0.26
		C119.96,16.48,87.39,138.82,103.07,218.43z"/>
	<linearGradient id="SVGID_2_" gradientUnits="userSpaceOnUse" x1="74.6081" y1="95.3683" x2="432.4385" y2="453.1988">
		<stop  offset="0" style="stop-color:#62CBE6"/>
		<stop  offset="0.6729" style="stop-color:#3D8DCB"/>
		<stop  offset="1" style="stop-color:#1670B9"/>
	</linearGradient>
	<path class="st1" d="M21.45,240.25C15.89,382.77,132.81,500,277.84,500c66.46,0,127.01-24.62,172.58-65.01
		c47.67-42.24,30.33-119.09-30.8-138.95h0c-29.21-9.49-61.86-3.91-84.81,16.09c-7.1,6.19-15.27,11.23-24.2,14.85
		c-94.01,46-193.02-34.9-207.53-108.56C87.39,138.82,119.96,16.48,289.14,0.26C285.29,0.09,281.44,0,277.55,0
		C140.45,0.15,26.65,106.77,21.45,240.25z"/>
</g>
</svg>
